<svg width="250" height="50" viewBox="0 0 250 50" fill="none" xmlns="http://www.w3.org/2000/svg">
<g clip-path="url(#clip0_38827_210726)">
<path fill-rule="evenodd" clip-rule="evenodd" d="M47.7752 4C43.9339 4 40.8203 7.11358 40.8203 10.9549C40.8203 14.7963 43.9339 17.9099 47.7752 17.9099C51.6166 17.9099 54.7302 14.7963 54.7302 10.9549C54.7302 7.11358 51.6166 4 47.7752 4ZM101.265 8.79883H89.5V41.4504H101.27C106.523 41.4504 110.578 40.0331 113.435 37.1876C116.291 34.3477 117.719 30.3367 117.719 25.1492C117.719 19.9617 116.28 15.9398 113.407 13.0834C110.534 10.227 106.485 8.79883 101.265 8.79883ZM108.783 33.494C106.994 35.3162 104.242 36.23 100.532 36.23H95.5575V14.0191H100.532C104.242 14.0191 106.989 14.933 108.783 16.7551C110.573 18.5773 111.465 21.3626 111.465 25.1C111.465 28.8374 110.573 31.6719 108.783 33.494ZM133.825 14.8018C136.216 14.8018 138.312 15.338 140.101 16.4051L140.106 16.4105C141.896 17.4776 143.286 19.0207 144.271 21.0399C145.256 23.059 145.748 25.4777 145.748 28.3012V29.7787H127.067C127.209 32.0714 127.833 33.8444 128.927 35.0975C130.186 36.5421 132.035 37.2644 134.465 37.2644C137.65 37.2644 140.046 35.869 141.655 33.0783L145.595 36.1317C144.544 37.9703 143.067 39.4149 141.163 40.4655C139.258 41.5161 137.009 42.0415 134.416 42.0415C130.279 42.0415 127.078 40.8595 124.812 38.4956C122.547 36.1317 121.414 32.7828 121.414 28.449C121.414 25.5871 121.928 23.1356 122.963 21.0836C123.997 19.0316 125.452 17.4721 127.324 16.4051C129.195 15.338 131.433 14.8018 133.825 14.8018ZM133.726 19.4366C131.494 19.4366 129.819 20.1589 128.703 21.6035C127.898 22.6486 127.39 24.0604 127.165 25.8388H140.167C139.97 24.1097 139.499 22.7143 138.749 21.6801C137.666 20.1862 135.959 19.4366 133.726 19.4366ZM185.582 14.8018C187.974 14.8018 190.069 15.338 191.859 16.4051L191.864 16.4105C193.654 17.4776 195.044 19.0207 196.028 21.0399C197.013 23.059 197.506 25.4777 197.506 28.3012V29.7787H178.824C178.967 32.0714 179.591 33.8444 180.685 35.0975C181.944 36.5421 183.793 37.2644 186.223 37.2644C189.407 37.2644 191.804 35.869 193.413 33.0783L197.353 36.1317C196.302 37.9703 194.825 39.4149 192.92 40.4655C191.016 41.5161 188.767 42.0415 186.173 42.0415C182.037 42.0415 178.835 40.8595 176.57 38.4956C174.305 36.1317 173.172 32.7828 173.172 28.449C173.172 25.5871 173.686 23.1356 174.72 21.0836C175.755 19.0316 177.21 17.4721 179.082 16.4051C180.953 15.338 183.191 14.8018 185.582 14.8018ZM185.484 19.4366C183.251 19.4366 181.577 20.1589 180.461 21.6035C179.656 22.6486 179.147 24.0604 178.923 25.8388H191.924C191.727 24.1097 191.257 22.7143 190.507 21.6801C189.424 20.1862 187.716 19.4366 185.484 19.4366ZM248.425 37.4125C247.801 37.4125 247.331 37.2484 247.024 36.92C246.712 36.5917 246.554 36.0828 246.554 35.3933V25.4945C246.554 22.2769 245.662 19.6941 243.872 17.7406C242.083 15.7871 239.462 14.8076 236.015 14.8076C232.567 14.8076 230.154 15.5792 228.283 17.1223C226.411 18.6654 225.295 20.701 224.934 23.229L230.006 24.2633C230.367 21.1114 232.255 19.5354 235.67 19.5354C237.574 19.5354 238.969 20.0389 239.856 21.0402C240.638 21.9212 241.071 23.1798 241.164 24.8105L233.207 26.5341C230.187 27.1908 228.009 28.1922 226.685 29.5383C225.355 30.8844 224.688 32.6409 224.688 34.8078C224.688 36.9748 225.443 38.682 226.953 40.0281C228.463 41.3743 230.482 42.0473 233.01 42.0473C235.276 42.0473 237.224 41.4563 238.849 40.2744C240.151 39.3277 241.054 37.9925 241.563 36.2853H241.629V37.1717C241.629 38.6164 242.05 39.7436 242.882 40.548C243.719 41.3524 244.879 41.7573 246.357 41.7573C247.703 41.7573 248.918 41.3961 250.001 40.6738V37.2265C249.476 37.325 248.95 37.3906 248.425 37.4235V37.4125ZM237.612 36.6957C236.578 37.2374 235.467 37.5055 234.291 37.5055C233.01 37.5055 232.015 37.2046 231.309 36.5917C230.603 35.9843 230.247 35.1745 230.247 34.1512C230.247 33.1279 230.575 32.2469 231.232 31.5903C231.889 30.9336 232.956 30.4576 234.433 30.1621L241.18 28.6847V29.8666C241.18 31.5739 240.841 33.0021 240.173 34.1512C239.5 35.3003 238.647 36.1485 237.612 36.6902V36.6957ZM222.471 15.3486H216.414L210.942 24.5088L205.481 15.3486H199.029L207.128 28.2188L198.586 41.4502H204.643L210.696 31.6607L216.808 41.4502H223.259L214.504 27.7975L222.471 15.3486ZM161.402 30.9603C160.669 33.2585 160.073 35.3872 159.613 37.3352C159.143 35.2504 158.557 33.1108 157.857 30.911L152.981 15.3486H146.727L155.542 41.4502H163.372L172.237 15.3486H166.278L161.402 30.9603ZM13.9099 24.5643C13.9099 28.4054 10.796 31.5192 6.95493 31.5192C3.11383 31.5192 0 28.4054 0 24.5643C0 20.7232 3.11383 17.6094 6.95493 17.6094C10.796 17.6094 13.9099 20.7232 13.9099 24.5643ZM34.1737 31.5192C38.0148 31.5192 41.1286 28.4054 41.1286 24.5643C41.1286 20.7232 38.0148 17.6094 34.1737 17.6094C30.3326 17.6094 27.2188 20.7232 27.2188 24.5643C27.2188 28.4054 30.3326 31.5192 34.1737 31.5192ZM68.3396 24.5643C68.3396 28.4054 65.2257 31.5192 61.3846 31.5192C57.5435 31.5192 54.4297 28.4054 54.4297 24.5643C54.4297 20.7232 57.5435 17.6094 61.3846 17.6094C65.2257 17.6094 68.3396 20.7232 68.3396 24.5643ZM27.5192 38.1727C27.5192 42.0138 24.4054 45.1276 20.5643 45.1276C16.7232 45.1276 13.6094 42.0138 13.6094 38.1727C13.6094 34.3316 16.7232 31.2178 20.5643 31.2178C24.4054 31.2178 27.5192 34.3316 27.5192 38.1727Z" fill="white"/>
</g>
<defs>
<clipPath id="clip0_38827_210726">
<rect width="250" height="50" fill="white"/>
</clipPath>
</defs>
</svg>
