<svg width="129" height="20" viewBox="0 0 129 20" fill="none" xmlns="http://www.w3.org/2000/svg">
<g opacity="0.3">
<g clip-path="url(#clip0_38827_210725)">
<path d="M13.9946 2.92907H20.1974L13.9844 6.95016V8.27124H15.8019L22.9071 3.668V8.27124H25.0152V0.8125H13.9946V2.92907Z" fill="white"/>
<path d="M22.9071 14.9672L15.8019 10.3652H13.9844V11.6863L20.1974 15.7061H13.9946V17.824H25.0152V10.3652H22.9071V14.9672Z" fill="white"/>
<path d="M2.98312 14.9672V10.3652H0.875V17.824H11.8956V15.7061H5.6941L11.9071 11.6863V10.3652H10.0883L2.98312 14.9672Z" fill="white"/>
<path d="M11.8956 2.92907V0.8125H0.875V8.27124H2.98312V3.668L10.0883 8.27124H11.9071V6.95016L5.6941 2.92907H11.8956Z" fill="white"/>
<path d="M39.1752 2.92902H34.6172V15.6233H39.1445C43.2033 15.6233 45.5763 13.4604 45.5763 9.32241C45.5763 5.18438 43.2353 2.92773 39.1765 2.92773L39.1752 2.92902ZM38.8949 13.5555H36.9903V5.02888H38.8949C41.7351 5.02888 43.1098 6.4078 43.1098 9.29157C43.1098 12.1753 41.7364 13.5543 38.8949 13.5543V13.5555Z" fill="white"/>
<path d="M51.4484 5.21484C48.2011 5.21484 46.5781 7.53446 46.5781 10.5429C46.5781 13.5513 48.3893 15.9031 51.4484 15.9031C53.5719 15.9031 55.2256 14.7118 55.8503 12.6749H53.5399C53.1022 13.4588 52.4468 13.8662 51.5111 13.8662C49.8254 13.8662 49.0139 12.6749 48.8885 11.1083H56.1306V10.5133C56.1306 7.50361 54.5063 5.21484 51.4471 5.21484H51.4484ZM48.8578 9.57263C49.1074 8.13074 49.732 7.06539 51.387 7.06539C53.042 7.06539 53.6973 8.0999 53.8842 9.57263H48.8578Z" fill="white"/>
<path d="M101.183 5.21484C97.9053 5.21484 96.3438 7.53446 96.3438 10.5429C96.3438 13.5513 98.1229 15.9031 101.214 15.9031C103.399 15.9031 104.898 14.7118 105.616 12.6749H103.336C102.898 13.4267 102.15 13.8662 101.275 13.8662C99.5898 13.8662 98.8717 12.6427 98.7155 11.1083H105.896V10.5133C105.896 7.53574 104.242 5.21484 101.182 5.21484H101.183ZM98.6541 9.57263C98.8423 8.09862 99.5283 7.06539 101.151 7.06539C102.774 7.06539 103.431 8.06777 103.649 9.57263H98.6528H98.6541Z" fill="white"/>
<path d="M84.6942 5.4668H82.2597L80.1682 9.00854L78.0755 5.4668H75.5168L78.6694 10.4813L75.3594 15.6538H77.7644L80.1055 11.8615L82.4159 15.6538H85.0065L81.6044 10.3245L84.6942 5.4668Z" fill="white"/>
<path d="M73.079 12.7081C72.6412 13.492 71.9552 13.8672 71.0182 13.8672C69.3325 13.8672 68.5517 12.6759 68.4275 11.1094H75.6402V10.5144C75.6402 7.44172 74.0786 5.24805 70.9568 5.24805C67.8349 5.24805 66.1172 7.53682 66.1172 10.5465C66.1172 13.5562 67.8656 15.9067 70.9875 15.9067C73.2044 15.9067 74.6713 14.7784 75.3893 12.7094H73.0777L73.079 12.7081ZM70.9261 7.06518C72.4876 7.06518 73.2364 8.16266 73.4233 9.57242H68.4275C68.6157 8.09841 69.3018 7.06518 70.9248 7.06518H70.9261Z" fill="white"/>
<path d="M91.1911 5.24866C89.6615 5.24866 88.6004 6.03258 88.1934 7.50531H88.1307V5.46842H85.8203V19.4478H88.1307V13.8987H88.1934C88.786 15.1838 89.7229 15.9047 91.1911 15.9047C94.2809 15.9047 95.406 13.1778 95.406 10.5446C95.406 7.9114 94.2822 5.24609 91.1911 5.24609V5.24866ZM90.6599 13.8062C88.6926 13.8062 88.2561 12.2705 88.2561 10.5459C88.2561 8.82125 88.7553 7.34852 90.6599 7.34852C92.5645 7.34852 93.1264 8.88422 93.1264 10.5459C93.1264 12.2075 92.5645 13.8062 90.6599 13.8062Z" fill="white"/>
<path d="M61.8453 11.5492C61.5637 12.4578 61.3141 13.2738 61.158 14.0564C60.9698 13.2095 60.783 12.3961 60.5026 11.5171L58.5673 5.4668H56.1328L59.5043 15.6217H62.6888L66.0923 5.4668H63.7192L61.8453 11.5479V11.5492Z" fill="white"/>
<path d="M114.978 2.92773V5.27562H113.293V7.53355H114.978V12.9888C114.978 14.8072 115.978 15.8109 117.852 15.8109H119.476V13.8665H118.103C117.478 13.8665 117.228 13.49 117.228 12.9258V7.53355H119.477V5.27562H117.228V2.92773H114.98H114.978ZM109.232 7.28167H109.17V5.4671H106.859V15.622H109.17V10.2927C109.17 8.41127 109.981 7.53355 111.792 7.53355H112.292V5.27562H112.105C110.669 5.27562 109.669 5.83978 109.231 7.28167H109.232ZM124.712 9.51389C123.91 9.47662 122.537 9.41494 122.516 8.32774C122.537 7.34592 123.535 7.03236 124.345 7.00665C125.285 7.03236 126.159 7.34592 126.52 8.25963H128.639C128.034 6.02869 126.598 5.21265 124.38 5.20365C122.414 5.21265 120.29 6.15335 120.299 8.41641C120.29 10.7309 122.538 11.2321 124.391 11.3837C125.286 11.421 126.661 11.5469 126.666 12.7498C126.661 13.7419 125.535 14.0554 124.715 14.0375C123.787 14.0554 122.539 13.6789 122.218 12.6495H120.043C120.043 14.4641 121.827 15.8739 124.66 15.8739C126.661 15.8739 128.847 15.0591 128.875 12.7061C128.847 10.168 126.786 9.72851 124.715 9.51518L124.712 9.51389Z" fill="white"/>
</g>
</g>
<defs>
<clipPath id="clip0_38827_210725">
<rect width="128" height="18.6353" fill="white" transform="translate(0.875 0.8125)"/>
</clipPath>
</defs>
</svg>
